<?xml version="1.0" encoding="UTF-8"?>
<svg id="Layer_2" data-name="Layer 2" xmlns="http://www.w3.org/2000/svg" xmlns:xlink="http://www.w3.org/1999/xlink" viewBox="0 0 969.06 155.2">
  <defs>
    <style>
      .cls-1 {
        fill: #fff;
        font-family: TimelessTCY-LighItal, TimelessTCYLig;
        font-size: 150px;
        font-style: italic;
      }

      .cls-2 {
        fill: url(#Degradado_sin_nombre_4);
        stroke-width: 0px;
      }
    </style>
    <linearGradient id="Degradado_sin_nombre_4" data-name="Degradado sin nombre 4" x1="363.13" y1="-154.48" x2="629.56" y2="306.97" gradientUnits="userSpaceOnUse">
      <stop offset="0" stop-color="#ab7a2b"/>
      <stop offset=".17" stop-color="#fff9c6"/>
      <stop offset=".21" stop-color="#fef7c1"/>
      <stop offset=".25" stop-color="#fef2b2"/>
      <stop offset=".3" stop-color="#feea9b"/>
      <stop offset=".34" stop-color="#fdde7b"/>
      <stop offset=".36" stop-color="#fdda6d"/>
      <stop offset=".37" stop-color="#f6d168"/>
      <stop offset=".42" stop-color="#cba14b"/>
      <stop offset=".46" stop-color="#b18339"/>
      <stop offset=".48" stop-color="#a87833"/>
      <stop offset=".51" stop-color="#a27330"/>
      <stop offset=".56" stop-color="#926528"/>
      <stop offset=".57" stop-color="#8c6025"/>
      <stop offset=".62" stop-color="#af7c34"/>
      <stop offset=".69" stop-color="#d79d47"/>
      <stop offset=".7" stop-color="#c28c3f"/>
      <stop offset=".75" stop-color="#6f4b21"/>
      <stop offset=".77" stop-color="#4f3115"/>
      <stop offset=".85" stop-color="#7a5220"/>
      <stop offset=".9" stop-color="#8c6025"/>
      <stop offset="1" stop-color="#d79d47"/>
    </linearGradient>
  </defs>
  <g id="Layer_1-2" data-name="Layer 1">
    <g>
      <text class="cls-1" transform="translate(0 125.02)"><tspan x="0" y="0">Congratulations!</tspan></text>
      <g>
        <path class="cls-2" d="m82.78,98.66l4.31,2.34c-2.63,4.93-5.94,9.47-9.94,13.62-3.51,3.66-7.67,6.57-12.49,8.72-5.75,2.59-11.64,3.88-17.68,3.88-6.97,0-13.37-1.68-19.22-5.05-11.59-6.79-17.39-18.14-17.39-34.06,0-11.13,2.73-21.83,8.18-32.08,6.04-11.43,14.59-20.21,25.65-26.37,7.84-4.39,15.88-6.59,24.11-6.59,2.97,0,5.47.2,7.49.59,2.02.39,5.32,1.32,9.9,2.78,1.61.49,3.21.73,4.82.73,1.46,0,2.56-.23,3.29-.7.73-.46,1.58-1.48,2.56-3.04h3.8l-7.01,31.05h-3.87c.34-1.81.51-3.49.51-5.05,0-6.15-1.75-11.13-5.26-14.94-3.61-3.86-8.38-5.79-14.32-5.79-6.92,0-13.49,2.44-19.73,7.32-7.6,5.86-13.74,14.84-18.41,26.95-3.95,10.21-5.92,19.87-5.92,29,0,7.47,1.92,13.6,5.77,18.38,4.38,5.47,10.81,8.2,19.29,8.2,6.58,0,12.36-1.57,17.35-4.72,4.99-3.15,9.73-8.21,14.21-15.2Z"/>
        <path class="cls-2" d="m136.05,56.98c6.38,0,11.45,2.31,15.2,6.92,3.75,4.61,5.63,10.88,5.63,18.79,0,13.04-4.87,24.17-14.61,33.4-7.41,7.03-15.27,10.55-23.6,10.55-6.53,0-11.71-2.37-15.56-7.1-3.85-4.74-5.77-11.11-5.77-19.12,0-11.18,3.97-21.12,11.91-29.81,3.95-4.3,8.26-7.63,12.93-10,4.68-2.37,9.3-3.58,13.88-3.63Zm-1.46,5.13c-6.87,0-12.64,4.96-17.32,14.87-2.09,4.54-3.9,9.81-5.41,15.82s-2.26,10.99-2.26,14.94c0,4.3.88,7.64,2.63,10.03,1.85,2.54,4.43,3.81,7.75,3.81,7.16,0,12.93-4.98,17.32-14.94,4.87-10.94,7.31-21.34,7.31-31.2,0-8.79-3.34-13.23-10.01-13.33Z"/>
        <path class="cls-2" d="m168.12,125.02l13.44-51.64c.78-3.08,1.17-4.93,1.17-5.57,0-2.34-1.29-3.52-3.87-3.52-1.12,0-2.1.03-2.92.07l-2.12.22,1.02-3.59c10.13-.98,17.66-2.32,22.58-4.03l-6.87,26.07c.88-1.17,2.39-3.2,4.53-6.08,5.11-6.93,9.66-11.95,13.63-15.05,3.97-3.1,7.83-4.65,11.58-4.65,2.68,0,4.91.87,6.69,2.6,1.78,1.73,2.67,3.94,2.67,6.63,0,1.66-.46,4.27-1.39,7.84l-9.21,35.08c-.88,3.32-1.31,5.45-1.31,6.37,0,1.32.54,1.98,1.61,1.98,1.85,0,4.87-2.46,9.06-7.4l2.48,2.27c-3.17,4.1-6.53,7.39-10.08,9.85-3.56,2.47-6.67,3.7-9.35,3.7-1.75,0-3.23-.6-4.42-1.79-1.19-1.2-1.79-2.67-1.79-4.43,0-1.07.39-3.1,1.17-6.08l8.84-34.35c1.22-4.74,1.83-7.69,1.83-8.86,0-.93-.32-1.71-.95-2.34-.63-.63-1.44-.95-2.41-.95-4.09,0-9.57,4.69-16.44,14.06-3.65,4.93-6.46,9.33-8.4,13.18-1.95,3.86-3.53,8.18-4.75,12.96l-4.53,17.43h-11.47Z"/>
        <path class="cls-2" d="m304.17,60.5l-1.97,8.64-10.38-.29c1.17,3.08,1.75,5.81,1.75,8.2,0,5.27-1.93,9.94-5.77,13.99-2.78,2.88-5.87,4.97-9.28,6.26-3.41,1.29-7.75,2.06-13.01,2.31-2.09,1.42-3.46,2.32-4.09,2.71-2.78,1.81-4.17,3.25-4.17,4.32,0,1.27,1.29,2.15,3.87,2.64,2.44.44,5.86,1.22,10.27,2.34,4.41,1.12,7.25,1.95,8.51,2.49,7.89,3.03,11.84,7.86,11.84,14.5,0,6.01-3,10.81-8.99,14.43-6.04,3.61-13.44,5.42-22.21,5.42-6.72,0-12.47-1.2-17.24-3.59-5.6-2.83-8.4-6.62-8.4-11.35,0-3.91,2.22-7.5,6.65-10.77,1.36-1.03,4.24-3,8.62-5.93-2.14-1.85-3.21-3.81-3.21-5.86,0-3.17,1.8-6.03,5.41-8.57.73-.49,2.68-1.76,5.84-3.81-2.44-.83-4.43-1.83-5.99-3-4.63-3.56-6.94-8.35-6.94-14.36,0-6.93,3.17-12.89,9.5-17.87,5.41-4.3,11.37-6.45,17.9-6.45,4.77,0,9.3,1.61,13.59,4.83l17.9-1.25Zm-49.32,58.74c-6.14,3.61-9.21,7.81-9.21,12.6,0,3.37,1.67,6.19,5.01,8.46,3.34,2.27,7.51,3.41,12.53,3.41,5.36,0,9.89-1.1,13.59-3.3,3.7-2.2,5.55-4.88,5.55-8.06s-1.54-5.67-4.6-7.18c-1.95-.93-6.84-2.22-14.69-3.88-3.56-.73-6.28-1.42-8.18-2.05Zm19.07-57.64c-4.87,0-8.79,2.74-11.76,8.2-2.73,4.98-4.21,10.13-4.46,15.45-.15,2.88.57,5.23,2.15,7.03,1.58,1.81,3.71,2.71,6.39,2.71,4.53,0,8.26-2.37,11.18-7.1,1.27-2.05,2.38-4.84,3.33-8.39.95-3.54,1.42-6.65,1.42-9.34,0-2.39-.78-4.39-2.34-6.01-1.56-1.61-3.53-2.46-5.92-2.56Z"/>
        <path class="cls-2" d="m305.56,125.02l12.71-49.73c.97-3.86,1.46-6.27,1.46-7.25,0-2.73-1.41-4-4.24-3.81l-3.07.22h-1.61l.8-3.3c9.89-1.17,17.36-2.54,22.43-4.1l-6.72,26c1.07-1.76,3.38-5.54,6.94-11.35,5.8-9.62,10.98-14.43,15.56-14.43,1.41,0,2.59.62,3.54,1.87s1.42,2.77,1.42,4.58c0,2.98-.82,5.63-2.45,7.95-1.63,2.32-3.5,3.48-5.59,3.48-1.41,0-2.44-.32-3.07-.95-.63-.63-1.07-1.78-1.32-3.44-.1-.78-.44-1.17-1.02-1.17-.68,0-2.19,1.76-4.53,5.27s-4.7,7.54-7.09,12.08c-2.39,4.74-4.23,8.86-5.52,12.38-1.29,3.52-2.67,8.25-4.13,14.21l-2.78,11.5h-11.76Z"/>
        <path class="cls-2" d="m416.55,57.71l-13.88,51.49c-.68,2.54-1.02,4.32-1.02,5.35,0,1.66.63,2.49,1.9,2.49,2.14,0,5.31-3.2,9.5-9.59l2.99,1.76c-2.82,4.98-6.15,9.14-9.97,12.49s-7.15,5.02-9.97,5.02c-1.9,0-3.45-.7-4.64-2.09s-1.79-3.21-1.79-5.46c0-1.85.71-5.35,2.12-10.47-.68.83-1.41,1.73-2.19,2.71-3.75,4.79-6.99,8.18-9.72,10.18-4.43,3.27-8.82,4.91-13.15,4.91s-7.45-1.71-9.79-5.13c-2.53-3.71-3.8-8.5-3.8-14.36,0-5.52,1.28-11.33,3.84-17.43,2.56-6.1,6.03-11.67,10.41-16.7,3.99-4.59,8.34-8.29,13.04-11.1,4.7-2.81,8.9-4.21,12.6-4.21,4.68,0,7.87,2.52,9.57,7.54l1.39-5.27,12.57-2.12Zm-23.96,5.49c-2.68-.15-5.57,1.16-8.66,3.92-3.09,2.76-6.13,6.73-9.1,11.9-2.78,4.79-5.05,9.85-6.83,15.2-1.78,5.35-2.67,9.78-2.67,13.29,0,3.08.63,5.46,1.9,7.14,1.27,1.68,3.04,2.53,5.33,2.53,5.6,0,11.35-4.56,17.24-13.7,6.48-10.06,9.72-20.24,9.72-30.54,0-6.3-2.31-9.54-6.94-9.74Z"/>
        <path class="cls-2" d="m433.35,60.28c9.5-.44,16.68-6.45,21.55-18.02h4.75l-4.53,17.14h10.38l-1.68,6.01h-10.3l-11.62,43.36c-.14.68-.37,1.51-.66,2.49-.63,2.3-.95,3.93-.95,4.91,0,1.66.78,2.49,2.34,2.49,2.14,0,5.92-3.39,11.32-10.18l2.7,2.05c-3.46,4.88-6.99,8.72-10.59,11.5-3.61,2.78-6.82,4.17-9.64,4.17-2.24,0-4.09-.75-5.55-2.23-1.46-1.49-2.19-3.36-2.19-5.6,0-1.66.68-5.08,2.05-10.25l11.4-42.7h-10.01l1.24-5.13Z"/>
        <path class="cls-2" d="m520.01,58.52h11.62l-13.37,51.34-.44,1.9c-.58,2.2-.88,3.47-.88,3.81,0,1.37.56,2.05,1.68,2.05,1.61,0,4.63-2.59,9.06-7.76l2.48,2.56c-3.21,4.2-6.64,7.59-10.27,10.18-3.63,2.59-6.78,3.88-9.46,3.88-1.56,0-2.8-.49-3.72-1.46-.93-.98-1.39-2.27-1.39-3.88,0-1.71.32-3.81.95-6.3l4.38-17.07c-1.8,2.59-3.75,5.37-5.85,8.35-3.17,4.59-6.82,8.91-10.96,12.96-4.92,4.88-9.64,7.32-14.17,7.32-2.83,0-5.08-.99-6.76-2.97-1.68-1.98-2.52-4.6-2.52-7.87,0-2.54.63-6.3,1.9-11.28l8.4-32.81c.24-.98.37-1.98.37-3,0-1.61-.39-2.71-1.17-3.3s-2.22-.88-4.31-.88c-.93,0-2.07.1-3.43.29l1.02-3.37c1.9-.29,3.16-.46,3.8-.51,4.14-.54,6.66-.9,7.56-1.1.9-.19,4.57-1.12,11-2.78l-12.2,49.8c-.73,2.93-1.1,5.03-1.1,6.3,0,2.78,1.19,4.17,3.58,4.17,3.07,0,7.87-4.05,14.39-12.16,2.97-3.66,6.16-8.32,9.57-13.99,2.53-4.2,3.9-6.71,4.09-7.54l6.14-24.9Z"/>
        <path class="cls-2" d="m567.06,107.45l3,1.76c-2.63,4.79-5.87,8.84-9.72,12.16-3.85,3.32-7.21,4.98-10.08,4.98-2,0-3.62-.75-4.86-2.23-1.24-1.49-1.86-3.41-1.86-5.75s.58-5.64,1.75-10.18l17.54-66.65c1.02-3.96,1.54-6.4,1.54-7.32,0-1.17-.3-1.99-.91-2.45-.61-.46-1.69-.7-3.25-.7-.88,0-1.8.05-2.78.15l-2.48.22,1.02-3.66c5.94-.59,13.88-1.9,23.82-3.96l-22.36,84.3c-.15.49-.46,1.59-.95,3.3-.34,1.27-.51,2.32-.51,3.15,0,1.46.66,2.2,1.97,2.2,2.19,0,5.23-3.1,9.13-9.3Z"/>
        <path class="cls-2" d="m642.98,57.71l-13.88,51.49c-.68,2.54-1.02,4.32-1.02,5.35,0,1.66.63,2.49,1.9,2.49,2.14,0,5.31-3.2,9.5-9.59l3,1.76c-2.83,4.98-6.15,9.14-9.97,12.49-3.83,3.34-7.15,5.02-9.97,5.02-1.9,0-3.45-.7-4.64-2.09-1.2-1.39-1.79-3.21-1.79-5.46,0-1.85.71-5.35,2.12-10.47-.68.83-1.41,1.73-2.19,2.71-3.75,4.79-6.99,8.18-9.72,10.18-4.43,3.27-8.82,4.91-13.15,4.91s-7.45-1.71-9.79-5.13c-2.53-3.71-3.8-8.5-3.8-14.36,0-5.52,1.28-11.33,3.84-17.43,2.56-6.1,6.03-11.67,10.41-16.7,3.99-4.59,8.34-8.29,13.04-11.1,4.7-2.81,8.9-4.21,12.6-4.21,4.68,0,7.87,2.52,9.57,7.54l1.39-5.27,12.57-2.12Zm-23.97,5.49c-2.68-.15-5.56,1.16-8.66,3.92-3.09,2.76-6.12,6.73-9.1,11.9-2.78,4.79-5.05,9.85-6.83,15.2-1.78,5.35-2.67,9.78-2.67,13.29,0,3.08.63,5.46,1.9,7.14,1.27,1.68,3.04,2.53,5.33,2.53,5.6,0,11.35-4.56,17.24-13.7,6.48-10.06,9.72-20.24,9.72-30.54,0-6.3-2.31-9.54-6.94-9.74Z"/>
        <path class="cls-2" d="m659.78,60.28c9.5-.44,16.68-6.45,21.55-18.02h4.75l-4.53,17.14h10.38l-1.68,6.01h-10.3l-11.62,43.36c-.15.68-.37,1.51-.66,2.49-.63,2.3-.95,3.93-.95,4.91,0,1.66.78,2.49,2.34,2.49,2.14,0,5.92-3.39,11.33-10.18l2.7,2.05c-3.46,4.88-6.99,8.72-10.6,11.5s-6.82,4.17-9.64,4.17c-2.24,0-4.09-.75-5.55-2.23-1.46-1.49-2.19-3.36-2.19-5.6,0-1.66.68-5.08,2.04-10.25l11.4-42.7h-10.01l1.24-5.13Z"/>
        <path class="cls-2" d="m722.98,57.2l-14.17,53.32c-.98,3.42-1.46,5.4-1.46,5.93,0,.93.51,1.39,1.54,1.39,2.14,0,5.31-2.46,9.5-7.4l2.56,2.42c-7.84,8.94-14.37,13.4-19.58,13.4-1.95,0-3.51-.61-4.68-1.83-1.17-1.22-1.75-2.83-1.75-4.83,0-1.22.34-3.08,1.02-5.57l10.81-40.21c.73-2.78,1.1-4.81,1.1-6.08,0-2.54-1.41-3.69-4.24-3.44l-2.63.22h-1.97l.95-3.52c5.07-.44,12.74-1.71,23.02-3.81Zm-2.19-29.74c2,0,3.73.73,5.19,2.2s2.19,3.22,2.19,5.27-.73,3.88-2.19,5.35-3.21,2.2-5.26,2.2-3.87-.73-5.33-2.2c-1.46-1.46-2.19-3.25-2.19-5.35s.74-3.81,2.23-5.27,3.28-2.2,5.37-2.2Z"/>
        <path class="cls-2" d="m772.45,56.98c6.38,0,11.45,2.31,15.2,6.92,3.75,4.61,5.62,10.88,5.62,18.79,0,13.04-4.87,24.17-14.61,33.4-7.4,7.03-15.27,10.55-23.6,10.55-6.53,0-11.71-2.37-15.56-7.1-3.85-4.74-5.77-11.11-5.77-19.12,0-11.18,3.97-21.12,11.91-29.81,3.95-4.3,8.26-7.63,12.93-10,4.68-2.37,9.3-3.58,13.88-3.63Zm-1.46,5.13c-6.87,0-12.64,4.96-17.32,14.87-2.09,4.54-3.9,9.81-5.41,15.82s-2.27,10.99-2.27,14.94c0,4.3.88,7.64,2.63,10.03,1.85,2.54,4.43,3.81,7.74,3.81,7.16,0,12.93-4.98,17.32-14.94,4.87-10.94,7.31-21.34,7.31-31.2,0-8.79-3.34-13.23-10.01-13.33Z"/>
        <path class="cls-2" d="m804.53,125.02l13.44-51.64c.78-3.08,1.17-4.93,1.17-5.57,0-2.34-1.29-3.52-3.87-3.52-1.12,0-2.1.03-2.92.07l-2.12.22,1.02-3.59c10.13-.98,17.66-2.32,22.58-4.03l-6.87,26.07c.88-1.17,2.39-3.2,4.53-6.08,5.11-6.93,9.66-11.95,13.63-15.05,3.97-3.1,7.83-4.65,11.58-4.65,2.68,0,4.91.87,6.69,2.6,1.78,1.73,2.67,3.94,2.67,6.63,0,1.66-.46,4.27-1.39,7.84l-9.21,35.08c-.88,3.32-1.31,5.45-1.31,6.37,0,1.32.54,1.98,1.61,1.98,1.85,0,4.87-2.46,9.06-7.4l2.48,2.27c-3.17,4.1-6.53,7.39-10.08,9.85-3.56,2.47-6.67,3.7-9.35,3.7-1.75,0-3.23-.6-4.42-1.79-1.19-1.2-1.79-2.67-1.79-4.43,0-1.07.39-3.1,1.17-6.08l8.84-34.35c1.22-4.74,1.83-7.69,1.83-8.86,0-.93-.32-1.71-.95-2.34-.63-.63-1.44-.95-2.41-.95-4.09,0-9.57,4.69-16.44,14.06-3.65,4.93-6.46,9.33-8.4,13.18-1.95,3.86-3.53,8.18-4.75,12.96l-4.53,17.43h-11.47Z"/>
        <path class="cls-2" d="m876.13,101.59h3.8c-.24,2.15-.37,3.74-.37,4.76,0,3.96,1.05,7.23,3.14,9.81,2.73,3.32,6.21,4.98,10.45,4.98,3.36,0,6.11-1.2,8.26-3.59,1.9-2.1,2.85-4.59,2.85-7.47,0-2.34-.51-4.41-1.53-6.19-1.02-1.78-3.68-5.26-7.96-10.44-3.46-4.2-5.82-7.57-7.09-10.11-1.27-2.54-1.9-5.17-1.9-7.91,0-5.17,1.95-9.62,5.85-13.33,3.55-3.42,7.79-5.13,12.71-5.13,1.56,0,2.91.16,4.05.48,1.14.32,3.81,1.23,8,2.75.93.34,1.73.51,2.41.51,1.51,0,2.51-.88,3-2.64h3.73l-4.9,23h-3.8c.19-2.49.29-4.25.29-5.27,0-3.76-1.09-6.91-3.25-9.45-2.17-2.54-4.86-3.81-8.07-3.81-2.63,0-4.8.9-6.5,2.71-1.71,1.81-2.56,4.1-2.56,6.88,0,2,.47,3.85,1.43,5.53.95,1.68,3.28,4.85,6.98,9.48,4.24,5.23,7.03,9.18,8.37,11.87,1.34,2.69,2.01,5.57,2.01,8.64,0,5.52-2.05,10.13-6.14,13.84-3.85,3.47-8.7,5.2-14.54,5.2-2.39,0-4.4-.25-6.03-.73-1.63-.49-4.45-1.68-8.44-3.59-.88-.44-1.71-.66-2.48-.66-1.95,0-3.1,1.27-3.44,3.81h-3.87l5.55-23.95Z"/>
        <path class="cls-2" d="m939.62,111.04c2.09,0,3.91.78,5.44,2.34,1.53,1.56,2.3,3.39,2.3,5.49s-.77,4.07-2.3,5.6c-1.54,1.54-3.37,2.31-5.52,2.31s-4.05-.77-5.59-2.31c-1.54-1.54-2.3-3.41-2.3-5.6s.78-4.05,2.34-5.57c1.56-1.51,3.44-2.27,5.63-2.27Zm1.68-9.81l5.55-23.44c1.66-6.88,2.79-12.34,3.4-16.37s1.33-10.78,2.16-20.25c.49-5.52,1.36-9.74,2.63-12.67.68-1.51,1.73-2.77,3.14-3.77,1.41-1,2.87-1.5,4.38-1.5,1.75,0,3.26.71,4.53,2.12,1.27,1.42,1.9,3.13,1.9,5.13,0,2.15-.43,4.48-1.28,7-.85,2.52-3.23,8.31-7.12,17.39-4.04,9.38-8.55,22.88-13.52,40.5l-1.9,6.88-3.87-1.03Z"/>
      </g>
    </g>
  </g>
</svg>